# xmcd
# 
# Track frame offsets:
#     182
#     23695
#     42187
#     65402
#     82525
#     96875
#     118162
#     134007
#     153597
#     176837
#     191870
#     215530
# 
# Disc length: 3130
# 
# Revision: 7
# Processed by: cddbd v1.5.2PL0 Copyright (c) Steve Scherf et al.
# Submitted via: fre:ac v1.0.17
# 
DISCID=a60c380c
DTITLE=Pet Shop Boys - Nightlife
DYEAR=1999
DGENRE=Synthpop
TTITLE0=For Your Own Good
TTITLE1=Closer To Heaven
TTITLE2=I Don't Know What You Want But I Can't Give It Any More
TTITLE3=Happiness Is An Option
TTITLE4=You Only Tell Me You Love Me When You're Drunk
TTITLE5=Vampires
TTITLE6=Radiophonic
TTITLE7=The Only One
TTITLE8=Boy Strange
TTITLE9=In Denial
TTITLE10=New York City Boy
TTITLE11=Footsteps
EXTD=YEAR: 1999
EXTT0=
EXTT1=
EXTT2=
EXTT3=
EXTT4=
EXTT5=
EXTT6=
EXTT7=
EXTT8=
EXTT9=
EXTT10=
EXTT11=
PLAYORDER=
